<?xml version="1.0" encoding="UTF-8" standalone="no"?>
<!-- Created with Inkscape (http://www.inkscape.org/) -->

<svg
   width="120mm"
   height="120mm"
   viewBox="0 0 120 120"
   version="1.1"
   id="svg1"
   inkscape:version="1.4.2 (ebf0e940d0, 2025-05-08)"
   sodipodi:docname="icon.svg"
   xmlns:inkscape="http://www.inkscape.org/namespaces/inkscape"
   xmlns:sodipodi="http://sodipodi.sourceforge.net/DTD/sodipodi-0.dtd"
   xmlns="http://www.w3.org/2000/svg"
   xmlns:svg="http://www.w3.org/2000/svg">
  <sodipodi:namedview
     id="namedview1"
     pagecolor="#ffffff"
     bordercolor="#666666"
     borderopacity="1.0"
     inkscape:showpageshadow="2"
     inkscape:pageopacity="0.0"
     inkscape:pagecheckerboard="0"
     inkscape:deskcolor="#d1d1d1"
     inkscape:document-units="mm"
     inkscape:zoom="0.74297138"
     inkscape:cx="397.05433"
     inkscape:cy="561.25984"
     inkscape:window-width="2520"
     inkscape:window-height="1014"
     inkscape:window-x="0"
     inkscape:window-y="0"
     inkscape:window-maximized="1"
     inkscape:current-layer="layer1" />
  <defs
     id="defs1" />
  <g
     inkscape:label="Capa 1"
     inkscape:groupmode="layer"
     id="layer1">
    <path
       style="fill:#000080;stroke-width:0.264583"
       d="m 18.228375,106.27737 c 1.382983,-0.50672 2.626472,-1.48602 3.327797,-2.62079 l 0.575826,-0.9317 h 32.176963 32.176977 l 0.74207,-0.71096 0.74208,-0.71096 v -4.677042 -4.67704 l -3.83646,1.459 -3.836459,1.459 v 1.81233 1.81233 h -2.64583 -2.64583 v -0.79375 c 0,-0.43656 -0.0893,-0.79108 -0.19844,-0.78782 -0.10914,0.003 -0.91281,0.35778 -1.78594,0.78782 -1.40748,0.69323 -1.86505,0.78257 -4.03489,0.78782 l -2.4474,0.006 v -10.45752 -10.45752 l 2.56246,-2.89911 c 1.40936,-1.59451 2.59874,-2.86284 2.64306,-2.81852 0.0443,0.0443 0.0932,5.42973 0.10866,11.96757 0.0159,6.6671 0.12417,11.59651 0.24691,11.22552 0.12036,-0.3638 0.59859,-2.32834 1.06275,-4.36563 0.46416,-2.03729 1.06868,-4.64325 1.34337,-5.79103 0.42789,-1.78781 0.49946,-3.14697 0.49946,-9.48416 0,-6.9306 0.0328,-7.44337 0.52019,-8.12782 0.40995,-0.57574 0.79936,-0.76359 1.83785,-0.88659 0.72472,-0.0858 1.68127,-0.34407 2.12564,-0.57387 l 0.80798,-0.41782 0.005,4.43856 0.005,4.43857 1.38522,-1.45521 c 1.67376,-1.7583 12.651639,-13.94186 13.021069,-14.45112 0.19913,-0.27451 -0.64116,-1.23175 -3.51237,-4.001208 l -3.77409,-3.64038 0.007,-11.59587 0.007,-11.59588 -0.77341,-0.77339 -0.7734,-0.7734 h -5.993819 -5.99384 l -0.77338,0.7734 -0.7734,0.77339 v 4.01115 c 0,2.39585 -0.10039,3.97564 -0.24927,3.92296 -0.1371,-0.0485 -4.35255,-4.16099 -9.36769,-9.13885 -5.80049,-5.75739 -9.377903,-9.11579 -9.831558,-9.22965 -0.425357,-0.10675 -1.017852,-0.0312 -1.468197,0.18712 -0.415274,0.20136 -7.33679,6.85501 -15.381147,14.7859 -8.044357,7.93088 -17.781923,17.51541 -21.639037,21.29895 -3.857112,3.783548 -7.2820354,7.229718 -7.6109384,7.658178 -0.789752,1.02879 -0.774158,2.2938 0.03996,3.24113 l 0.637966,0.74236 4.6537004,0.0832 4.653701,0.0832 v 13.98261 13.9826 l -1.124479,0.18684 c -0.618464,0.10276 -1.445988,0.35134 -1.838944,0.55242 -0.392957,0.20107 -0.77991,0.36559 -0.859896,0.36559 -0.07999,0 -0.145431,-5.70215 -0.145431,-12.67145 v -12.67144 l -2.9765624,-0.10655 c -3.399293,-0.12167 -4.608346,-0.57148 -5.967167,-2.21996 -1.6141489,-1.95824 -1.8043099,-5.24418 -0.425381,-7.35047 C 3.8539276,58.635738 8.6523766,53.73734 14.122598,48.35307 19.592818,42.9688 29.486883,33.22433 36.109409,26.6987 42.731935,20.17307 48.656332,14.53608 49.27474,14.17206 c 0.706191,-0.4157 1.703077,-0.71433 2.680342,-0.80295 2.751982,-0.24954 3.574417,0.31296 10.649157,7.28347 l 6.18363,6.0925 0.58719,-1.14244 c 0.70049,-1.3629 2.23425,-2.69436 3.51385,-3.05041 0.50933,-0.14172 3.72401,-0.25717 7.14375,-0.25656 5.985959,10e-4 6.266999,0.0244 7.540629,0.62652 0.7276,0.34398 1.64401,0.96789 2.03647,1.38648 1.52096,1.6222 1.5354,1.75059 1.5354,13.65514 v 10.9267 l 3.19128,3.17086 3.19127,3.17087 1.63652,-1.85209 c 4.230302,-4.78741 5.534372,-5.67306 8.367722,-5.68273 2.20916,-0.008 3.23022,0.49941 6.18405,3.07036 3.0067,2.61697 3.73301,3.91861 3.74597,6.713418 0.0124,2.67961 -0.50099,3.61807 -4.12562,7.54062 -2.29981,2.48885 -14.111372,15.65505 -20.652982,23.02165 l -0.97533,1.09834 -0.083,6.76949 -0.083,6.769502 -0.80359,1.14264 c -1.02164,1.4527 -2.17337,2.2264 -3.84932,2.58582 -0.90977,0.19511 -12.061639,0.27858 -35.510641,0.26579 -29.987894,-0.0163 -34.057399,-0.0652 -33.150045,-0.39761 z m 64.938784,-15.920042 2.473109,-0.97129 -0.14591,-0.89919 c -0.22905,-1.4115 -0.85059,-2.16614 -1.784059,-2.16614 -0.9824,0 -2.35289,-1.25638 -2.35884,-2.16246 -0.003,-0.33861 -0.0915,-0.75133 -0.19844,-0.91715 -0.22661,-0.35148 -2.37887,-1.04182 -2.58995,-0.83074 -0.14468,0.1447 -1.70104,5.71828 -1.70392,6.10209 0,0.11404 0.41132,0.45096 0.91594,0.74869 0.50464,0.29774 1.17369,0.95585 1.48679,1.46248 0.39566,0.6402 0.70089,0.87292 1.00074,0.76306 0.23728,-0.0869 1.54432,-0.59514 2.90454,-1.12935 z m 8.748689,-18.45641 c 4.52091,-5.09323 8.221022,-9.33379 8.222452,-9.42346 0.003,-0.20519 -2.396302,-2.08592 -2.661392,-2.08592 -0.10776,0 -2.06967,2.11336 -4.3598,4.69636 -6.38098,7.19694 -9.892979,11.12962 -11.563169,12.94828 -0.83674,0.91113 -1.52135,1.75616 -1.52135,1.87784 0,0.12168 0.58841,0.37204 1.30754,0.55635 0.71914,0.18431 1.4523,0.50952 1.6292,0.72269 0.17693,0.21317 0.41278,0.29323 0.52417,0.17793 0.11136,-0.11531 3.901439,-4.37684 8.422349,-9.47007 z m 16.840672,-6.77486 0.77711,-0.82173 -2.64583,-2.50163 c -1.45521,-1.37589 -3.39908,-3.17178 -4.31972,-3.99085 l -1.67389,-1.48922 -0.70736,0.90385 c -0.389052,0.49711 -0.707372,0.96932 -0.707372,1.04936 0,0.19509 8.121792,7.67195 8.333692,7.67195 0.0914,0 0.51597,-0.36977 0.94337,-0.82173 z m 4.15055,-4.70072 c 1.02687,-1.34966 1.25677,-1.85047 1.25677,-2.73779 0,-1.4637 -0.91115,-2.943918 -2.85038,-4.630618 -3.19987,-2.78316 -4.47861,-2.84123 -7.00183,-0.318 -0.8627,0.86269 -1.52895,1.67275 -1.48056,1.80013 0.18892,0.49735 8.25966,7.714998 8.53096,7.629228 0.15854,-0.0501 0.85381,-0.83445 1.54504,-1.74295 z M 14.764199,103.00444 c -1.244314,-0.56493 -1.937882,-1.63422 -1.931876,-2.9784 0.0084,-1.883542 1.591183,-3.386582 3.566223,-3.386582 1.103985,0 1.136772,-0.0289 5.487427,-4.82865 2.407242,-2.65575 5.699855,-6.28062 7.316919,-8.05526 2.742161,-3.00937 2.940114,-3.29973 2.940114,-4.31261 0,-1.45286 0.576379,-2.48379 1.681977,-3.00843 1.927032,-0.91443 3.922776,-0.13125 4.63935,1.82062 0.212849,0.57977 0.416996,1.09529 0.453662,1.14561 0.03667,0.0503 2.527589,1.08912 5.53538,2.30846 5.251873,2.12906 5.498632,2.20149 6.223323,1.82674 0.415038,-0.21463 1.214868,-0.39023 1.777402,-0.39023 0.98988,0 1.163791,-0.15536 5.405169,-4.82864 2.41031,-2.65576 6.88362,-7.55302 9.94071,-10.8828 5.45488,-5.94148 5.55588,-6.0724 5.42681,-7.03454 -0.26207,-1.95391 1.29106,-3.71235 3.2789,-3.71235 1.96964,0 3.26232,1.31049 3.26232,3.30729 0,2.00115 -1.34311,3.30729 -3.40088,3.30729 -1.01277,0 -1.16652,0.13205 -4.85232,4.16719 -3.19628,3.49919 -9.01002,9.9193 -14.56712,16.08642 -1.08917,1.20874 -1.25729,1.54786 -1.26067,2.54296 -0.005,1.4595 -0.43319,2.29886 -1.560432,3.05851 -1.135013,0.76489 -2.349307,0.76767 -3.464941,0.008 -0.916586,-0.62418 -1.169337,-0.95817 -1.55579,-2.05584 -0.200385,-0.56917 -1.048523,-0.99023 -5.79388,-2.87639 l -5.559134,-2.20961 -1.205942,0.46055 c -0.665689,0.25423 -1.489625,0.38936 -1.839171,0.30163 -0.551069,-0.13831 -1.063485,0.31246 -3.949288,3.47416 -1.823831,1.99821 -5.115917,5.59678 -7.315745,7.99683 l -3.99969,4.36373 v 1.37066 c 0,1.667812 -0.839822,2.839662 -2.332112,3.254132 -1.213432,0.33702 -1.034557,0.35534 -2.346695,-0.24039 z m 17.907974,-9.364852 v -4.85196 l 1.389062,-1.4789 c 1.238083,-1.31815 1.525664,-1.49182 2.645833,-1.59783 l 1.256771,-0.11894 v 6.44979 6.44979 h -2.645833 -2.645833 z m 8.466666,-0.96888 c 0,-3.98713 0.08991,-5.82083 0.285393,-5.82083 0.156967,0 1.347592,0.49352 2.645833,1.0967 l 2.360441,1.09671 v 4.72413 4.72412 h -2.645834 -2.645833 z m 8.466667,2.7571 v -3.06373 l 0.859895,0.21581 c 1.088129,0.27308 2.761981,0.26666 3.704167,-0.0142 l 0.727604,-0.21692 v 3.07139 3.07139 h -2.645833 -2.645833 z m 8.546153,-1.63262 c 0.14236,-6.5178 0.43404,-7.4744 3.16166,-10.36924 l 2.05052,-2.17623 v 8.62091 8.62091 h -2.65737 -2.65738 z"
       id="path1"
       sodipodi:nodetypes="sscccccccccccccsssscccsscssssssscccssscccccccccssssssssscccccsssscsssssssscsssssscccsssssscccsssssscsscsscssssscssssssssscsscsssssssssssssssssssssssssssssssssssscsssscsssccssccccccssscccccsccssccccccsscccccs" />
  </g>
</svg>
